<?xml version="1.0" encoding="utf-8"?>
<!-- Generator: Adobe Illustrator 19.2.1, SVG Export Plug-In . SVG Version: 6.00 Build 0)  -->
<svg version="1.1" id="layer" xmlns="http://www.w3.org/2000/svg" xmlns:xlink="http://www.w3.org/1999/xlink" x="0px" y="0px"
	 viewBox="0 0 652 652" style="enable-background:new 0 0 652 652;" xml:space="preserve">
<style type="text/css">
	.st0{fill-rule:evenodd;clip-rule:evenodd;fill:#291770;}
	.st1{fill-rule:evenodd;clip-rule:evenodd;fill:#D5261C;}
	.st2{fill-rule:evenodd;clip-rule:evenodd;fill:#FFFFFF;}
	.st3{fill-rule:evenodd;clip-rule:evenodd;fill:#2E216B;}
</style>
<g>
	<path class="st0" d="M29.8,307.6v3.8c0,8.5,5.1,17.8,10,21.4c7.1,5.3,11.8,7.3,21.2,10.2c3.7,1.2,8.3,2.5,12.1,3.5
		c3.4,0.8,9,2.5,12.1,3.7c6.8,2.7,16.1,6.3,16.1,15.5v0.8c0,12.6-11.7,17.7-24.6,17.7h-0.4c-12,0-20.8-5.5-26.8-11.5
		c-3.4-3.4-6-6.4-8.8-10.4c-1.4-2.1-6.3-10.1-6.8-12.4h-7.4l-0.1,1.9l1.1,36.2v1.3h7.2c1.1,0,5.3-5.3,6.5-5.3c0,0,7,2.9,8.1,3.3
		c2.6,0.9,6.2,2,8.8,2.6c6.5,1.4,12.7,2.4,20.6,2.4h3.2c23.3,0,48.4-12.5,48.4-35v-0.6c0-9.3-5.1-17.2-10.3-21.3
		c-3.3-2.5-5.9-4.1-9.7-6.1c-3.9-2-7.7-2.6-11.8-4.2c-1.4-0.5-4.5-1.4-6.1-1.7c-1.7-0.4-4.2-1.4-6.1-1.9c-4.2-1.1-8.3-2.7-12.3-3.7
		c-3.4-0.9-8-3.4-10.5-5.3c-3-2.2-5.5-5.3-5.5-10.5V300c0-4.5,4.1-8.8,7-10.7c3.6-2.4,8.1-3.8,14.1-3.8h2.1c9.9,0,17.4,5.9,22.3,11
		c2.2,2.3,12,18,12.3,21.2h7.6l-0.6-30.8v-6.5h-7.6c-0.6,0-5,4.4-5.3,4.4c-1,0-5.6-2.1-6.9-2.6c-2.4-0.8-5-1.4-7.4-2.3
		c-3.8-1.3-11.8-2.5-16.9-2.5h-6.3c-9.4,0-22.4,4.5-28,8.2C38.7,289.5,29.8,298.5,29.8,307.6"/>
	<path class="st0" d="M141,314.1l-2.7,0v6.1c4.3,0,8.1,1.1,10.7,3c3.5,2.6,3.7,4.4,3.7,10.2c0,9.3,0,18.5,0,27.8
		c0,10.4,1,16.3,5.6,22.2c3.6,4.5,11.4,8.4,19.4,8.4h2.9c8.1,0,13.1-1.3,18.7-3.8c2.7-1.2,4.9-2.6,7.2-4.2c1.2-0.8,5.4-4.8,6.5-4.8
		v9.7c0,0.6,0.7,1,1.1,1.3l41.7-1.9v-5.9c-6.9,0-14.3-1.9-14.3-8.4v-60.5c-1-0.3-0.7-0.8-1.5-0.8l-0.4,0l-41.7,1.7v6.1h0.8
		c3.3,0,7.1,0.4,9.4,1.5c1.8,0.8,4.5,4.3,4.5,6.7v42.8c0,1.5-5.8,5.5-7.2,6.3c-3,1.6-6.4,2.6-10.9,2.6c-14.6,0-13.1-12.4-13.1-26.8
		c0-13.3,0-26.5,0-39.8c-0.2-0.4-0.7-1.1-1.3-1.1l-1.7,0L141,314.1z"/>
	<path class="st0" d="M266.3,333.7v3.8c0,11.9,12.9,18.8,22.4,21.7c5.6,1.7,11.8,2.9,17.2,4.7c4.9,1.7,11.8,3.8,11.8,10.3
		c0,9.1-7.1,11.2-16.2,11.2H300c-7.4,0-14.3-4.8-18.7-8.1c-3.5-2.6-10.4-10.9-11.5-15.5h-6.3l1.2,28.6l6.7,0l2.4-5
		c0.8,0.1,4.6,1.9,6,2.4c1.9,0.6,4.7,1.7,6.6,2c4.9,1,8.8,2.1,15,2.1h2.7c10.9,0,18.9-2.1,26.1-5.7c6-3,13.3-9.9,13.3-18.7v-3.8
		c0-6.1-4.1-11.1-7.5-14c-4.2-3.5-8.7-5.3-14.5-7.2c-8.1-2.7-29.2-4.8-29.2-14.2v-2.9c0-4.1,7.1-7.6,11.6-7.6h4.6
		c6.2,0,11.4,4.1,15.1,6.8c2.6,1.9,8.8,9.2,9.1,12.8l6.4,0l-1.5-26.1l-6.7,0l-1.7,4.4c-0.5,0-4.8-1.4-5.7-1.7
		c-1.8-0.6-4.4-0.8-6.1-1.5c-2.6-0.9-10.1-1.3-13.9-1.3h-2.5C285.7,311.1,266.3,319.2,266.3,333.7"/>
	<path class="st1" d="M447.9,328.6v1.3c0,3.6,2.2,6.5,5.7,6.5h0.8c2,0,4.4-1.3,4.4-3.2v-0.4c0-2.6-2.1-4.4-2.1-7.2v-0.8
		c0-3.1,3.3-6.6,5.2-8.1c2.6-1.9,5.8-3.3,9.4-4.1c3.8-0.8,8-0.9,11.8-1.7c1.6-0.3,4.8,0,6.3-0.4c1-0.3,4.9-0.5,6.3-0.5
		c-1.5,2.3-7.9,8-10.3,10.6c-3.4,3.7-6.6,7.1-9.9,11c-6.5,7.7-12.6,15.2-19,22.9c-6.2,7.4-12.5,16-19.2,22.7
		c-5.3,5.3-14.9,17.2-24.7,17.2h-0.8c-2.6,0-6.4-1.5-8.8-1.5h-0.6c-1.8,0-4.2,1.7-4.2,3.4v1.9c0,1.1,2.1,2.8,3.1,3.2
		c1.7,0.7,3.2,1,5.5,1h2.5c0.4,0,3.9-0.8,4.5-0.9c1.6-0.4,2.7-0.9,4-1.4c2.7-1.1,5-2.3,7.2-3.8c3.6-2.4,8.9-6.9,11.7-10.2
		c3.2-3.9,7.3-7.4,10.5-11.4c1.2-1.5,9.3-11.5,10.1-12.1l24.4-0.4h4.8c0,3.3-1.5,10.9-2.3,13.7c-0.6,2.2-1.2,3.9-2,6
		c-0.6,1.4-2.1,4.7-2.4,5.8l7.8-0.8l1.3-0.1l22.3,1.1h1.7c0.7,0,1.2-3.2,1.3-4l-7.2,0.6c-3,0.3-8.4-0.7-10.7-1.3
		c0-3.3,1.2-7.4,1.3-10.5c0.1-2.5,0.9-8,1.4-10.7c1.2-6.7,1.5-14.6,3.1-20.7c0.8-3.1,0.9-7,1.7-10.1c0.8-3.1,1-7,1.7-10.3
		c0.7-3.4,1-6.7,2-10c0.9-3.1,1.8-6.6,2.4-9.6c-3.2,1.7-3.5,2.1-7.5,3.5c-1.5,0.5-8,1.2-10,1.2c-6.1,0-15,1-20.2,2.2
		c-6.5,1.4-10.9,3.3-15.8,6.5C452.9,317,447.9,323.1,447.9,328.6"/>
	<path class="st0" d="M352.1,314.7v5.5c6.8,0,15.8,3.5,15.8,10.1v45.5c0,2.8-1.7,5.1-3.6,6c-1.4,0.7-6.2,1.5-8.1,1.5h-1.3v5.9h55
		v-5.9c-1.7,0-7.3-1.4-8.5-2c-2.2-1.1-4.6-3.1-4.6-6.2v-61.9c-0.8-0.2-1.2-0.8-1.7-0.8c-3.9,0-6.9,0.4-10.7,0.4
		c-2.7,0-8.2,0.1-10.9,0.4c-3.4,0.4-7.5,0.1-10.8,0.6c-1.2,0.2-4.2,0.2-5.4,0.3C356,314.2,352.1,313.6,352.1,314.7"/>
	<path class="st1" d="M626.3,332.4v-2.3c-0.7-0.9-0.6-1.5-1.9-2.3c-0.9-0.5-1.9-0.8-3.4-0.8H620c-4.5,0-12,6.4-14.7,8.9
		c-2.1,1.9-10.8,10.1-11.4,12.4h-0.4c0-0.6,1.8-6.7,2.2-7.7c0.3-1,2.2-7,2.2-7.7v-1.3c0-0.9-1.7-1.5-2.7-1.5h-1.1
		c-5,0-12,3.3-15.5,5.2c-2,1.1-11.8,7-11.8,8.7l2.2,2c2.8-1.5,9.8-8.2,13.3-8.2c0.7,0,1.7,0.6,1.7,1.1c0,3.5-2,9.1-2.8,12.6
		c-0.4,1.7-1.4,4.2-1.8,6c-0.4,1.9-1.1,4.4-1.7,6.1c-1.2,3.8-2.3,8.1-3.7,11.7c-0.5,1.3-3.7,11-3.7,11.9h12.2c0-1.7,2.1-7.5,2.6-9.6
		c0.7-3.2,1.7-6.4,2.7-9.5c2.2-6.9,3.5-11.8,7.9-16.7c3.9-4.3,7.9-8.6,13.6-11.1c2.6-1.1,6-2.5,9-3.2c1.3-0.3,3.4-1,4.6-1.5
		C625.5,334.3,624.9,334.4,626.3,332.4"/>
	<path class="st0" d="M378,267.8c-0.7-0.3-1.5-5-1.5-6.1h-0.6c0.1-0.7,0.3-0.7,0.2-1.3l-0.2-2.1c-0.3-0.3-0.3-0.4-0.8-0.4
		c-0.3,0-0.4,0.3-0.4,0.6c0,0.4,0.1,0.3,0.2,0.8H374c0,2.2-2.5,10.5-3.3,12.5c-1.4,3.7-3.4,7.4-6.4,9.4c-1.7-2.5-2.3-3.6-3.7-6.6
		c-1.1-2.4-1.9-4.9-3.2-7.2c-1.8-3.3-6.9-9.3-10.6-10.2h-0.6l0.4,1.3c2.5,4.7,4.7,8.1,5.7,14.5c1.1,6.5,1.2,11.2,1.2,19l2.3-2.3V289
		c0.5-0.3,0.9-1.1,1.5-1.1c1,0,1.8,1.3,2.4,2.1c0.4,0.5,1.8,1.8,2.2,2.1l0.2-0.8h1.1l3-3l4.4,4.3l-0.2,0.4h0.8l-0.3-0.5l4.1-4
		l4.2,4.3l-1.7,1.9l0.5-0.2l1.9-1l0,0.2l0.7,1h0.6l-1.9-2.1l4.2-4.2l0,0.3l3.7,3.7l0.9,0l0.2-0.6h0.6l3.1-2.9l3.8,3.8
		c0-7.4,0-12.9,1.2-19c0.5-2.4,1.5-5.7,2.3-7.8c0.7-1.7,2.9-5.8,3.2-7c0.7,0.1,0.7,0.2,1.5,0.2h0.2c1.3,0,2.5-1.7,2.5-2.9
		c0-1.2-1.1-3.2-2.1-3.2h-1.3c-0.9,0-1.9,1.6-1.9,2.7v0.8c0,0.8,0.2,0.7,0.4,1.5c-4.6,2.4-7.5,5.3-10.1,9.7c-1.2,2.1-2,4.4-3,6.9
		c-1.1,2.8-2.3,4-3.7,6.2c-2.1-1.4-3.3-3.2-4.7-5.4C379.4,273.2,378.7,268.9,378,267.8"/>
	<path class="st1" d="M525.6,343.4l3.6,2.1c2.5-1.3,9.2-7.8,12-7.8h1.7c0.5,0,0.8,0.3,0.8,0.8v1.5c0,1.2-6.3,17.8-7.2,20.4
		c-1.7,4.5-5.6,16.7-5.6,22.2v1.3c0,3.2,2.9,4.8,6.1,4.8h0.8c3.6,0,11-4,13.4-5.6c2-1.3,3.7-2.6,5.6-3.9c1.7-1.2,3.8-3.1,5.5-4
		c-0.3-0.5-2.8-2.5-3.2-2.5c-1.1,0-10.3,8.2-13.7,8.2c-0.8,0-1.7-0.6-1.7-1.3v-1.7c0-4.4,5.1-18.3,6.6-22.3
		c1.2-3.1,7.1-19.3,7.1-21.9v-1.5c0-1.6-3-2.5-4.8-2.5h-0.8c-5.4,0-11.4,2.9-14.8,5C534.5,336.2,526.9,341.4,525.6,343.4"/>
	<path class="st2" d="M461.6,357.7h25.9c0-2.7,1.1-7.2,1.5-10.3c0.3-2.4,1.2-7.6,1.8-10.2c0.7-3.2,1.2-6.8,2.1-9.9
		c0.6-2,2.3-7.9,2.4-9.6c-1.9,1.3-6.7,7.5-8.8,9.5c-2.9,2.9-5.8,6.8-8.4,10.1C476.2,339.6,461.8,356.9,461.6,357.7"/>
	<path class="st0" d="M355.9,289.7l1.4-1.3l4.3,4.2l-4,4.1l-4.1-3.8l-0.2,10.3h43l0-4.8l-0.3-4.4l-3.5,3.4l-4.5-4.4l1.1-1.1h-0.6
		l-0.2,0.6l-0.9,0l0.5,0.6l-4,4.1l-2.6-2.4h-0.6l-0.7-1l0-0.2l-1.9,1l-0.5,0.2c-0.8,0.5-1.5,2.1-2.3,2.1c-0.2,0-3.4-3.4-4-3.8h-0.8
		l-4,3.8l-4.3-4.2l1.1-1.3h-1.1l-0.2,0.8c-0.4-0.3-1.8-1.7-2.2-2.1c-0.6-0.7-1.3-2.1-2.4-2.1c-0.5,0-1,0.7-1.5,1.1V289.7z"/>
	<path class="st1" d="M553.9,307.1v1.3c0,2.8,2.6,4.6,5.5,4.6h0.2c3.9,0,8.2-3.1,8.2-6.7v-0.4c0-3.2-1.5-3.6-3.4-4.8l-2.5-0.2h-0.6
		C557.7,300.8,553.9,304.1,553.9,307.1"/>
	<polygon class="st2" points="389.1,291.8 388,292.9 392.6,297.3 396.1,293.9 396.9,293.1 396.1,292.6 392.3,288.8 	"/>
	<polygon class="st2" points="363.2,291.3 362.1,292.7 366.4,296.9 370.4,293 370.6,292.6 366.2,288.4 	"/>
	<polygon class="st2" points="381.3,294.7 383.9,297.1 387.9,293 387.5,292.4 383.7,288.8 383.7,288.5 379.5,292.7 	"/>
	<polygon class="st2" points="355.9,289.7 353.5,292 352.9,292.6 353.5,292.8 357.6,296.7 361.6,292.6 357.3,288.4 	"/>
	<path class="st2" d="M371.2,293c0.6,0.4,3.8,3.8,4,3.8c0.8,0,1.6-1.6,2.3-2.1l1.7-1.9l-4.2-4.3l-4.1,4L371.2,293z"/>
	<path class="st3" d="M374,259.3h0.8c-0.1-0.6-0.2-0.4-0.2-0.8c0-0.3,0.1-0.6,0.4-0.6c0.5,0,0.5,0.2,0.8,0.4l0.2,2.1
		c0.1,0.5-0.2,0.5-0.2,1.3h0.6c0,1.1,0.8,5.8,1.5,6.1l-1.9-10.3c0.7-0.2,1.7-1.3,1.7-1.9v-1.5c0-1.1-1.1-2.5-2.3-2.5H375
		c-1.3,0-2.5,1.6-2.5,2.9c0,1.6,0.9,2.5,1.9,3.2L374,259.3z"/>
	<path class="st3" d="M346.6,258.5l-0.4-1.3h0.6l-0.6-0.4c0.2-0.5,0.6-1,0.6-1.7v-0.6c0-1.8-1-2.9-2.7-2.9c-1.4,0-2.5,1.6-2.5,2.9
		c0,1.4,0.9,3.2,2.3,3.2h0.4c0.6,0,0.8-0.1,1.3-0.3L346.6,258.5z"/>
</g>
</svg>
